# xmcd CD database file
#
# Track frame offsets:
#	150
#	10123
#	18472
#	28931
#	36684
#	46186
#	55570
#	65065
#	73007
#	83203
#	92850
#	101368
#	110166
#	118560
#	127046
#	135153
#	143702
#	152108
#
# Disc length: 2124 seconds
#
# Revision: 0
# Processed by: cddbd v1.5.1PL0 Copyright (c) Steve Scherf et al.
# Submitted via: CDex 1.60beta1
#
DISCID=f9084a12
DTITLE=Various Artist - Harmony: Elements Of Balance
DYEAR=1900
DGENRE=New Age
TTITLE0=Butterfly Dance
TTITLE1=Don't Let Your Dreams Get You Down
TTITLE2=Pure Love
TTITLE3=Caravane
TTITLE4=Tides
TTITLE5=Exotica
TTITLE6=Alien Smile
TTITLE7=Night of Angels
TTITLE8=Reunion
TTITLE9=Butterfly Dance
TTITLE10=Don't Let Your Dreams Get You Down
TTITLE11=Pure Love
TTITLE12=Caravane
TTITLE13=Tides
TTITLE14=Exotica
TTITLE15=Alien Smile
TTITLE16=Night of Angels
TTITLE17=Reunion
EXTD=
EXTT0=
EXTT1=
EXTT2=
EXTT3=
EXTT4=
EXTT5=
EXTT6=
EXTT7=
EXTT8=
EXTT9=
EXTT10=
EXTT11=
EXTT12=
EXTT13=
EXTT14=
EXTT15=
EXTT16=
EXTT17=
PLAYORDER=
